<svg xmlns="http://www.w3.org/2000/svg" width="163" height="36" viewBox="0 0 163 36" fill="none"><rect width="163" height="36" rx="18" fill="white"></rect><rect x="0.375" y="0.375" width="162.25" height="35.25" rx="17.625" stroke="white" stroke-opacity="0.4" stroke-width="0.75"></rect><circle cx="18" cy="18" r="13.9143" fill="url(#paint0_radial_1023_7319)" stroke="url(#paint1_linear_1023_7319)" stroke-width="0.171331"></circle><path d="M23.3329 15.8003C23.3329 15.6405 23.3803 15.4843 23.4691 15.3514C23.5579 15.2185 23.6841 15.1149 23.8318 15.0537C23.9795 14.9926 24.142 14.9765 24.2987 15.0077C24.4555 15.0389 24.5995 15.1159 24.7125 15.2289C24.8255 15.3419 24.9025 15.4859 24.9337 15.6427C24.9648 15.7994 24.9488 15.9619 24.8877 16.1096C24.8265 16.2573 24.7229 16.3835 24.59 16.4723C24.4571 16.5611 24.3009 16.6085 24.1411 16.6085C23.9267 16.6085 23.7212 16.5233 23.5696 16.3718C23.4181 16.2202 23.3329 16.0147 23.3329 15.8003ZM22.5248 14.1841C22.6846 14.1841 22.8409 14.1367 22.9738 14.0479C23.1067 13.9591 23.2102 13.8329 23.2714 13.6852C23.3326 13.5375 23.3486 13.375 23.3174 13.2183C23.2862 13.0615 23.2092 12.9175 23.0962 12.8045C22.9832 12.6915 22.8392 12.6145 22.6825 12.5833C22.5257 12.5521 22.3632 12.5682 22.2155 12.6293C22.0679 12.6905 21.9417 12.7941 21.8529 12.927C21.7641 13.0599 21.7167 13.2161 21.7167 13.3759C21.7167 13.5903 21.8018 13.7958 21.9534 13.9474C22.1049 14.0989 22.3105 14.1841 22.5248 14.1841ZM24.4549 17.9554C24.3125 17.9436 24.1714 17.9889 24.0624 18.0812C23.9534 18.1735 23.8855 18.3053 23.8737 18.4476C23.7773 19.574 23.3612 20.6493 22.6744 21.5471C21.9875 22.445 21.0585 23.128 19.9967 23.5158C18.9349 23.9036 17.7844 23.98 16.6806 23.7361C15.5768 23.4922 14.5656 22.9381 13.766 22.1391C12.9664 21.34 12.4117 20.3291 12.1671 19.2255C11.9225 18.1218 11.9982 16.9713 12.3854 15.9092C12.7725 14.8472 13.4549 13.9177 14.3523 13.2303C15.2497 12.543 16.3248 12.1262 17.4511 12.029C17.5218 12.0232 17.5907 12.0035 17.6538 11.971C17.717 11.9386 17.7731 11.894 17.819 11.8398C17.8649 11.7857 17.8997 11.723 17.9214 11.6554C17.943 11.5878 17.9512 11.5166 17.9454 11.4458C17.9395 11.3751 17.9198 11.3062 17.8873 11.2431C17.8549 11.1799 17.8103 11.1238 17.7561 11.0779C17.702 11.032 17.6393 10.9972 17.5717 10.9755C17.5041 10.9539 17.4329 10.9457 17.3622 10.9515C16.0315 11.066 14.7611 11.5581 13.7006 12.3701C12.6401 13.182 11.8335 14.2799 11.3758 15.5346C10.9181 16.7894 10.8282 18.1487 11.1168 19.4528C11.4054 20.7569 12.0605 21.9514 13.0049 22.8958C13.9493 23.8402 15.1439 24.4953 16.4479 24.7839C17.752 25.0725 19.1114 24.9826 20.3661 24.5249C21.6209 24.0672 22.7188 23.2606 23.5307 22.2001C24.3426 21.1396 24.8347 19.8693 24.9492 18.5386C24.9553 18.4678 24.9473 18.3965 24.9257 18.3288C24.9041 18.2611 24.8694 18.1983 24.8234 18.1441C24.7775 18.0899 24.7212 18.0453 24.658 18.0129C24.5948 17.9805 24.5257 17.961 24.4549 17.9554ZM17.9454 13.1066C18.9044 13.1066 19.8418 13.3909 20.6392 13.9237C21.4366 14.4565 22.0581 15.2138 22.4251 16.0998C22.7921 16.9858 22.8881 17.9607 22.701 18.9013C22.5139 19.8419 22.0521 20.7059 21.374 21.384C20.6959 22.0621 19.8319 22.5239 18.8913 22.711C17.9507 22.8981 16.9758 22.8021 16.0898 22.4351C15.2038 22.0681 14.4465 21.4466 13.9137 20.6492C13.3809 19.8518 13.0966 18.9144 13.0966 17.9554C13.098 16.6698 13.6093 15.4373 14.5183 14.5283C15.4273 13.6193 16.6598 13.108 17.9454 13.1066ZM17.4066 17.9554C17.4066 18.0982 17.4634 18.2353 17.5644 18.3363C17.6654 18.4374 17.8025 18.4941 17.9454 18.4941H21.1779C21.3208 18.4941 21.4578 18.4374 21.5589 18.3363C21.6599 18.2353 21.7167 18.0982 21.7167 17.9554C21.7167 17.8125 21.6599 17.6754 21.5589 17.5744C21.4578 17.4734 21.3208 17.4166 21.1779 17.4166H18.4841V14.7228C18.4841 14.5799 18.4274 14.4429 18.3263 14.3419C18.2253 14.2408 18.0883 14.1841 17.9454 14.1841C17.8025 14.1841 17.6654 14.2408 17.5644 14.3419C17.4634 14.4429 17.4066 14.5799 17.4066 14.7228V17.9554ZM20.1004 12.5678C20.2602 12.5678 20.4165 12.5204 20.5494 12.4316C20.6823 12.3428 20.7858 12.2166 20.847 12.0689C20.9082 11.9213 20.9242 11.7588 20.893 11.602C20.8618 11.4452 20.7848 11.3013 20.6718 11.1882C20.5588 11.0752 20.4148 10.9982 20.258 10.9671C20.1013 10.9359 19.9388 10.9519 19.7911 11.0131C19.6435 11.0742 19.5173 11.1778 19.4285 11.3107C19.3397 11.4436 19.2923 11.5998 19.2923 11.7597C19.2923 11.974 19.3774 12.1796 19.529 12.3311C19.6805 12.4827 19.8861 12.5678 20.1004 12.5678Z" fill="white"></path><path d="M41.824 24V12.8H42.8L50.528 22.528H50.016V12.8H51.184V24H50.208L42.496 14.272H43.008V24H41.824ZM58.8876 15.52C59.5703 15.52 60.1676 15.6533 60.6796 15.92C61.2023 16.176 61.6076 16.5707 61.8956 17.104C62.1943 17.6373 62.3436 18.3093 62.3436 19.12V24H61.2076V19.232C61.2076 18.3467 60.9836 17.68 60.5356 17.232C60.0983 16.7733 59.4796 16.544 58.6796 16.544C58.0823 16.544 57.5596 16.6667 57.1116 16.912C56.6743 17.1467 56.333 17.4933 56.0876 17.952C55.853 18.4 55.7356 18.944 55.7356 19.584V24H54.5996V12.128H55.7356V17.904L55.5116 17.472C55.7783 16.864 56.205 16.3893 56.7916 16.048C57.3783 15.696 58.077 15.52 58.8876 15.52ZM70.6761 24V22.144L70.6281 21.84V18.736C70.6281 18.0213 70.4255 17.472 70.0201 17.088C69.6255 16.704 69.0335 16.512 68.2441 16.512C67.7001 16.512 67.1828 16.6027 66.6921 16.784C66.2015 16.9653 65.7855 17.2053 65.4441 17.504L64.9321 16.656C65.3588 16.2933 65.8708 16.016 66.4681 15.824C67.0655 15.6213 67.6948 15.52 68.3561 15.52C69.4441 15.52 70.2815 15.792 70.8681 16.336C71.4655 16.8693 71.7641 17.6853 71.7641 18.784V24H70.6761ZM67.7801 24.08C67.1508 24.08 66.6015 23.9787 66.1321 23.776C65.6735 23.5627 65.3215 23.2747 65.0761 22.912C64.8308 22.5387 64.7081 22.112 64.7081 21.632C64.7081 21.1947 64.8095 20.8 65.0121 20.448C65.2255 20.0853 65.5668 19.7973 66.0361 19.584C66.5161 19.36 67.1561 19.248 67.9561 19.248H70.8521V20.096H67.9881C67.1775 20.096 66.6121 20.24 66.2921 20.528C65.9828 20.816 65.8281 21.1733 65.8281 21.6C65.8281 22.08 66.0148 22.464 66.3881 22.752C66.7615 23.04 67.2841 23.184 67.9561 23.184C68.5961 23.184 69.1455 23.04 69.6041 22.752C70.0735 22.4533 70.4148 22.0267 70.6281 21.472L70.8841 22.256C70.6708 22.8107 70.2975 23.2533 69.7641 23.584C69.2415 23.9147 68.5801 24.08 67.7801 24.08ZM79.1376 15.52C79.8203 15.52 80.4176 15.6533 80.9296 15.92C81.4523 16.176 81.8576 16.5707 82.1456 17.104C82.4443 17.6373 82.5936 18.3093 82.5936 19.12V24H81.4576V19.232C81.4576 18.3467 81.2336 17.68 80.7856 17.232C80.3483 16.7733 79.7296 16.544 78.9296 16.544C78.3323 16.544 77.8096 16.6667 77.3616 16.912C76.9243 17.1467 76.583 17.4933 76.3376 17.952C76.103 18.4 75.9856 18.944 75.9856 19.584V24H74.8496V15.6H75.9376V17.904L75.7616 17.472C76.0283 16.864 76.455 16.3893 77.0416 16.048C77.6283 15.696 78.327 15.52 79.1376 15.52ZM89.9501 15.52C90.6328 15.52 91.2301 15.6533 91.7421 15.92C92.2648 16.176 92.6701 16.5707 92.9581 17.104C93.2568 17.6373 93.4061 18.3093 93.4061 19.12V24H92.2701V19.232C92.2701 18.3467 92.0461 17.68 91.5981 17.232C91.1608 16.7733 90.5421 16.544 89.7421 16.544C89.1448 16.544 88.6221 16.6667 88.1741 16.912C87.7368 17.1467 87.3955 17.4933 87.1501 17.952C86.9155 18.4 86.7981 18.944 86.7981 19.584V24H85.6621V12.128H86.7981V17.904L86.5741 17.472C86.8408 16.864 87.2675 16.3893 87.8541 16.048C88.4408 15.696 89.1395 15.52 89.9501 15.52ZM104.15 24.08C103.318 24.08 102.571 23.8987 101.91 23.536C101.259 23.1627 100.747 22.656 100.374 22.016C100.001 21.3653 99.8141 20.624 99.8141 19.792C99.8141 18.9493 100.001 18.208 100.374 17.568C100.747 16.928 101.259 16.4267 101.91 16.064C102.571 15.7013 103.318 15.52 104.15 15.52C104.865 15.52 105.51 15.6587 106.086 15.936C106.662 16.2133 107.115 16.6293 107.446 17.184L106.598 17.76C106.31 17.3333 105.953 17.0187 105.526 16.816C105.099 16.6133 104.635 16.512 104.134 16.512C103.537 16.512 102.998 16.6507 102.518 16.928C102.038 17.1947 101.659 17.5733 101.382 18.064C101.105 18.5547 100.966 19.1307 100.966 19.792C100.966 20.4533 101.105 21.0293 101.382 21.52C101.659 22.0107 102.038 22.3947 102.518 22.672C102.998 22.9387 103.537 23.072 104.134 23.072C104.635 23.072 105.099 22.9707 105.526 22.768C105.953 22.5653 106.31 22.256 106.598 21.84L107.446 22.416C107.115 22.96 106.662 23.376 106.086 23.664C105.51 23.9413 104.865 24.08 104.15 24.08ZM113.841 15.52C114.523 15.52 115.121 15.6533 115.633 15.92C116.155 16.176 116.561 16.5707 116.849 17.104C117.147 17.6373 117.297 18.3093 117.297 19.12V24H116.161V19.232C116.161 18.3467 115.937 17.68 115.489 17.232C115.051 16.7733 114.433 16.544 113.633 16.544C113.035 16.544 112.513 16.6667 112.065 16.912C111.627 17.1467 111.286 17.4933 111.041 17.952C110.806 18.4 110.689 18.944 110.689 19.584V24H109.553V12.128H110.689V17.904L110.465 17.472C110.731 16.864 111.158 16.3893 111.745 16.048C112.331 15.696 113.03 15.52 113.841 15.52ZM123.789 24.08C122.979 24.08 122.248 23.8987 121.597 23.536C120.957 23.1627 120.451 22.656 120.077 22.016C119.704 21.3653 119.517 20.624 119.517 19.792C119.517 18.9493 119.704 18.208 120.077 17.568C120.451 16.928 120.957 16.4267 121.597 16.064C122.237 15.7013 122.968 15.52 123.789 15.52C124.621 15.52 125.357 15.7013 125.997 16.064C126.648 16.4267 127.155 16.928 127.517 17.568C127.891 18.208 128.077 18.9493 128.077 19.792C128.077 20.624 127.891 21.3653 127.517 22.016C127.155 22.656 126.648 23.1627 125.997 23.536C125.347 23.8987 124.611 24.08 123.789 24.08ZM123.789 23.072C124.397 23.072 124.936 22.9387 125.405 22.672C125.875 22.3947 126.243 22.0107 126.509 21.52C126.787 21.0187 126.925 20.4427 126.925 19.792C126.925 19.1307 126.787 18.5547 126.509 18.064C126.243 17.5733 125.875 17.1947 125.405 16.928C124.936 16.6507 124.403 16.512 123.805 16.512C123.208 16.512 122.675 16.6507 122.205 16.928C121.736 17.1947 121.363 17.5733 121.085 18.064C120.808 18.5547 120.669 19.1307 120.669 19.792C120.669 20.4427 120.808 21.0187 121.085 21.52C121.363 22.0107 121.736 22.3947 122.205 22.672C122.675 22.9387 123.203 23.072 123.789 23.072ZM122.749 14.288L124.941 12.304H126.461L123.869 14.288H122.749ZM134.685 15.52C135.367 15.52 135.965 15.6533 136.477 15.92C136.999 16.176 137.405 16.5707 137.693 17.104C137.991 17.6373 138.141 18.3093 138.141 19.12V24H137.005V19.232C137.005 18.3467 136.781 17.68 136.333 17.232C135.895 16.7733 135.277 16.544 134.477 16.544C133.879 16.544 133.357 16.6667 132.909 16.912C132.471 17.1467 132.13 17.4933 131.885 17.952C131.65 18.4 131.533 18.944 131.533 19.584V24H130.397V15.6H131.485V17.904L131.309 17.472C131.575 16.864 132.002 16.3893 132.589 16.048C133.175 15.696 133.874 15.52 134.685 15.52ZM144.793 27.184C144.025 27.184 143.289 27.072 142.585 26.848C141.881 26.624 141.31 26.304 140.873 25.888L141.449 25.024C141.844 25.376 142.329 25.6533 142.905 25.856C143.492 26.0693 144.11 26.176 144.761 26.176C145.828 26.176 146.612 25.9253 147.113 25.424C147.614 24.9333 147.865 24.1653 147.865 23.12V21.024L148.025 19.584L147.913 18.144V15.6H149.001V22.976C149.001 24.4267 148.644 25.488 147.929 26.16C147.225 26.8427 146.18 27.184 144.793 27.184ZM144.585 23.68C143.785 23.68 143.065 23.5093 142.425 23.168C141.785 22.816 141.278 22.3307 140.905 21.712C140.542 21.0933 140.361 20.384 140.361 19.584C140.361 18.784 140.542 18.08 140.905 17.472C141.278 16.8533 141.785 16.3733 142.425 16.032C143.065 15.6907 143.785 15.52 144.585 15.52C145.332 15.52 146.004 15.6747 146.601 15.984C147.198 16.2933 147.673 16.752 148.025 17.36C148.377 17.968 148.553 18.7093 148.553 19.584C148.553 20.4587 148.377 21.2 148.025 21.808C147.673 22.416 147.198 22.88 146.601 23.2C146.004 23.52 145.332 23.68 144.585 23.68ZM144.697 22.672C145.316 22.672 145.865 22.544 146.345 22.288C146.825 22.0213 147.204 21.6587 147.481 21.2C147.758 20.7307 147.897 20.192 147.897 19.584C147.897 18.976 147.758 18.4427 147.481 17.984C147.204 17.5253 146.825 17.168 146.345 16.912C145.865 16.6453 145.316 16.512 144.697 16.512C144.089 16.512 143.54 16.6453 143.049 16.912C142.569 17.168 142.19 17.5253 141.913 17.984C141.646 18.4427 141.513 18.976 141.513 19.584C141.513 20.192 141.646 20.7307 141.913 21.2C142.19 21.6587 142.569 22.0213 143.049 22.288C143.54 22.544 144.089 22.672 144.697 22.672Z" fill="#333333"></path><defs><radialGradient id="paint0_radial_1023_7319" cx="0" cy="0" r="1" gradientUnits="userSpaceOnUse" gradientTransform="translate(18 18) rotate(90) scale(14)"><stop stop-color="#E69500"></stop><stop offset="1" stop-color="#FFCA66"></stop></radialGradient><linearGradient id="paint1_linear_1023_7319" x1="4.53994" y1="9.93949" x2="37.5323" y2="36.0074" gradientUnits="userSpaceOnUse"><stop stop-color="white"></stop><stop offset="0.734375" stop-color="white" stop-opacity="0"></stop></linearGradient></defs></svg>