<svg xmlns="http://www.w3.org/2000/svg" width="122" height="36" viewBox="0 0 122 36" fill="none"><rect width="122" height="36" rx="18" fill="white"></rect><rect x="0.375" y="0.375" width="121.25" height="35.25" rx="17.625" stroke="white" stroke-opacity="0.4" stroke-width="0.75"></rect><circle cx="18" cy="18" r="13.9143" fill="url(#paint0_radial_1023_7305)" stroke="url(#paint1_linear_1023_7305)" stroke-width="0.171331"></circle><path d="M21.4004 9.59961H14.2004C13.723 9.59961 13.2652 9.78925 12.9276 10.1268C12.59 10.4644 12.4004 10.9222 12.4004 11.3996V24.5996C12.4004 25.077 12.59 25.5348 12.9276 25.8724C13.2652 26.21 13.723 26.3996 14.2004 26.3996H21.4004C21.8778 26.3996 22.3356 26.21 22.6732 25.8724C23.0107 25.5348 23.2004 25.077 23.2004 24.5996V11.3996C23.2004 10.9222 23.0107 10.4644 22.6732 10.1268C22.3356 9.78925 21.8778 9.59961 21.4004 9.59961ZM20.2004 13.1996H15.4004C15.2413 13.1996 15.0886 13.1364 14.9761 13.0239C14.8636 12.9114 14.8004 12.7587 14.8004 12.5996C14.8004 12.4405 14.8636 12.2879 14.9761 12.1753C15.0886 12.0628 15.2413 11.9996 15.4004 11.9996H20.2004C20.3595 11.9996 20.5121 12.0628 20.6247 12.1753C20.7372 12.2879 20.8004 12.4405 20.8004 12.5996C20.8004 12.7587 20.7372 12.9114 20.6247 13.0239C20.5121 13.1364 20.3595 13.1996 20.2004 13.1996Z" fill="white"></path><path d="M17.2015 19.8374C17.2144 19.8503 17.2318 19.8575 17.25 19.8575C17.2682 19.8575 17.2856 19.8503 17.2985 19.8374L20.2681 16.8677C20.5343 16.6016 20.9657 16.6016 21.2319 16.8677C21.498 17.1339 21.498 17.5653 21.2319 17.8315L17.7319 21.3315C17.6041 21.4593 17.4307 21.5311 17.25 21.5311C17.0693 21.5311 16.8959 21.4593 16.7681 21.3315L14.7681 19.3315C14.502 19.0654 14.502 18.6339 14.7681 18.3677C15.0343 18.1016 15.4657 18.1016 15.7319 18.3677L17.2015 19.8374Z" fill="#EEA620" stroke="url(#paint2_linear_1023_7305)" stroke-width="0.137065" stroke-linecap="round" stroke-linejoin="round"></path><path d="M41.824 24V12.8H46.384C47.5787 12.8 48.624 13.04 49.52 13.52C50.4267 13.9893 51.1307 14.6453 51.632 15.488C52.1333 16.3307 52.384 17.3013 52.384 18.4C52.384 19.4987 52.1333 20.4693 51.632 21.312C51.1307 22.1547 50.4267 22.816 49.52 23.296C48.624 23.7653 47.5787 24 46.384 24H41.824ZM43.008 22.976H46.32C47.312 22.976 48.1707 22.784 48.896 22.4C49.632 22.0053 50.2027 21.4667 50.608 20.784C51.0133 20.0907 51.216 19.296 51.216 18.4C51.216 17.4933 51.0133 16.6987 50.608 16.016C50.2027 15.3333 49.632 14.8 48.896 14.416C48.1707 14.0213 47.312 13.824 46.32 13.824H43.008V22.976ZM58.3708 24.08C57.4961 24.08 56.7281 23.8987 56.0668 23.536C55.4054 23.1627 54.8881 22.656 54.5148 22.016C54.1414 21.3653 53.9548 20.624 53.9548 19.792C53.9548 18.96 54.1308 18.224 54.4828 17.584C54.8454 16.944 55.3361 16.4427 55.9548 16.08C56.5841 15.7067 57.2881 15.52 58.0668 15.52C58.8561 15.52 59.5548 15.7013 60.1628 16.064C60.7814 16.416 61.2668 16.9173 61.6188 17.568C61.9708 18.208 62.1468 18.9493 62.1468 19.792C62.1468 19.8453 62.1414 19.904 62.1308 19.968C62.1308 20.0213 62.1308 20.08 62.1308 20.144H54.8188V19.296H61.5228L61.0748 19.632C61.0748 19.024 60.9414 18.4853 60.6748 18.016C60.4188 17.536 60.0668 17.1627 59.6188 16.896C59.1708 16.6293 58.6534 16.496 58.0668 16.496C57.4908 16.496 56.9734 16.6293 56.5148 16.896C56.0561 17.1627 55.6988 17.536 55.4428 18.016C55.1868 18.496 55.0588 19.0453 55.0588 19.664V19.84C55.0588 20.48 55.1974 21.0453 55.4748 21.536C55.7628 22.016 56.1574 22.3947 56.6588 22.672C57.1708 22.9387 57.7521 23.072 58.4028 23.072C58.9148 23.072 59.3894 22.9813 59.8268 22.8C60.2748 22.6187 60.6588 22.3413 60.9788 21.968L61.6188 22.704C61.2454 23.152 60.7761 23.4933 60.2108 23.728C59.6561 23.9627 59.0428 24.08 58.3708 24.08ZM55.4108 14.288L57.4908 12.784H58.6108L60.6908 14.288H59.6028L57.6028 13.072H58.4988L56.4988 14.288H55.4108ZM59.1228 12.256C58.8028 12.256 58.5254 12.1867 58.2908 12.048C58.0561 11.8987 57.8374 11.7547 57.6348 11.616C57.4428 11.4667 57.2401 11.392 57.0268 11.392C56.7814 11.392 56.5948 11.4613 56.4668 11.6C56.3388 11.7387 56.2694 11.936 56.2588 12.192H55.5707C55.5814 11.7333 55.7148 11.376 55.9708 11.12C56.2268 10.8533 56.5681 10.72 56.9948 10.72C57.3148 10.72 57.5868 10.7947 57.8108 10.944C58.0454 11.0827 58.2641 11.2267 58.4668 11.376C58.6694 11.5147 58.8721 11.584 59.0748 11.584C59.3201 11.584 59.5068 11.5147 59.6348 11.376C59.7734 11.2373 59.8481 11.0453 59.8588 10.8H60.5308C60.5201 11.2373 60.3868 11.5893 60.1308 11.856C59.8854 12.1227 59.5494 12.256 59.1228 12.256ZM71.9905 24.08C71.1905 24.08 70.4705 23.8987 69.8305 23.536C69.2012 23.1733 68.7052 22.672 68.3425 22.032C67.9798 21.3813 67.7985 20.6347 67.7985 19.792C67.7985 18.9387 67.9798 18.192 68.3425 17.552C68.7052 16.912 69.2012 16.416 69.8305 16.064C70.4705 15.7013 71.1905 15.52 71.9905 15.52C72.7265 15.52 73.3825 15.6853 73.9585 16.016C74.5452 16.3467 75.0092 16.832 75.3505 17.472C75.7025 18.1013 75.8785 18.8747 75.8785 19.792C75.8785 20.6987 75.7078 21.472 75.3665 22.112C75.0252 22.752 74.5612 23.2427 73.9745 23.584C73.3985 23.9147 72.7372 24.08 71.9905 24.08ZM72.0705 23.072C72.6678 23.072 73.2012 22.9387 73.6705 22.672C74.1505 22.3947 74.5238 22.0107 74.7905 21.52C75.0678 21.0187 75.2065 20.4427 75.2065 19.792C75.2065 19.1307 75.0678 18.5547 74.7905 18.064C74.5238 17.5733 74.1505 17.1947 73.6705 16.928C73.2012 16.6507 72.6678 16.512 72.0705 16.512C71.4838 16.512 70.9558 16.6507 70.4865 16.928C70.0172 17.1947 69.6438 17.5733 69.3665 18.064C69.0892 18.5547 68.9505 19.1307 68.9505 19.792C68.9505 20.4427 69.0892 21.0187 69.3665 21.52C69.6438 22.0107 70.0172 22.3947 70.4865 22.672C70.9558 22.9387 71.4838 23.072 72.0705 23.072ZM75.2385 24V21.472L75.3505 19.776L75.1905 18.08V12.128H76.3265V24H75.2385ZM84.7543 24V22.144L84.7063 21.84V18.736C84.7063 18.0213 84.5036 17.472 84.0983 17.088C83.7036 16.704 83.1116 16.512 82.3223 16.512C81.7783 16.512 81.2609 16.6027 80.7703 16.784C80.2796 16.9653 79.8636 17.2053 79.5223 17.504L79.0103 16.656C79.4369 16.2933 79.9489 16.016 80.5463 15.824C81.1436 15.6213 81.7729 15.52 82.4343 15.52C83.5223 15.52 84.3596 15.792 84.9463 16.336C85.5436 16.8693 85.8423 17.6853 85.8423 18.784V24H84.7543ZM81.8583 24.08C81.2289 24.08 80.6796 23.9787 80.2103 23.776C79.7516 23.5627 79.3996 23.2747 79.1543 22.912C78.9089 22.5387 78.7863 22.112 78.7863 21.632C78.7863 21.1947 78.8876 20.8 79.0903 20.448C79.3036 20.0853 79.6449 19.7973 80.1143 19.584C80.5943 19.36 81.2343 19.248 82.0343 19.248H84.9303V20.096H82.0663C81.2556 20.096 80.6903 20.24 80.3703 20.528C80.0609 20.816 79.9062 21.1733 79.9062 21.6C79.9062 22.08 80.0929 22.464 80.4663 22.752C80.8396 23.04 81.3623 23.184 82.0343 23.184C82.6743 23.184 83.2236 23.04 83.6823 22.752C84.1516 22.4533 84.4929 22.0267 84.7063 21.472L84.9623 22.256C84.7489 22.8107 84.3756 23.2533 83.8423 23.584C83.3196 23.9147 82.6583 24.08 81.8583 24.08ZM82.3863 14.288L79.7943 12.304H81.3143L83.5063 14.288H82.3863ZM93.2158 15.52C93.8984 15.52 94.4958 15.6533 95.0078 15.92C95.5304 16.176 95.9358 16.5707 96.2238 17.104C96.5224 17.6373 96.6718 18.3093 96.6718 19.12V24H95.5358V19.232C95.5358 18.3467 95.3118 17.68 94.8638 17.232C94.4264 16.7733 93.8078 16.544 93.0078 16.544C92.4104 16.544 91.8878 16.6667 91.4398 16.912C91.0024 17.1467 90.6611 17.4933 90.4158 17.952C90.1811 18.4 90.0638 18.944 90.0638 19.584V24H88.9278V15.6H90.0158V17.904L89.8398 17.472C90.1064 16.864 90.5331 16.3893 91.1198 16.048C91.7064 15.696 92.4051 15.52 93.2158 15.52ZM103.324 27.184C102.556 27.184 101.82 27.072 101.116 26.848C100.412 26.624 99.8416 26.304 99.4043 25.888L99.9803 25.024C100.375 25.376 100.86 25.6533 101.436 25.856C102.023 26.0693 102.642 26.176 103.292 26.176C104.359 26.176 105.143 25.9253 105.644 25.424C106.146 24.9333 106.396 24.1653 106.396 23.12V21.024L106.556 19.584L106.444 18.144V15.6H107.532V22.976C107.532 24.4267 107.175 25.488 106.46 26.16C105.756 26.8427 104.711 27.184 103.324 27.184ZM103.116 23.68C102.316 23.68 101.596 23.5093 100.956 23.168C100.316 22.816 99.8096 22.3307 99.4363 21.712C99.0736 21.0933 98.8923 20.384 98.8923 19.584C98.8923 18.784 99.0736 18.08 99.4363 17.472C99.8096 16.8533 100.316 16.3733 100.956 16.032C101.596 15.6907 102.316 15.52 103.116 15.52C103.863 15.52 104.535 15.6747 105.132 15.984C105.73 16.2933 106.204 16.752 106.556 17.36C106.908 17.968 107.084 18.7093 107.084 19.584C107.084 20.4587 106.908 21.2 106.556 21.808C106.204 22.416 105.73 22.88 105.132 23.2C104.535 23.52 103.863 23.68 103.116 23.68ZM103.228 22.672C103.847 22.672 104.396 22.544 104.876 22.288C105.356 22.0213 105.735 21.6587 106.012 21.2C106.29 20.7307 106.428 20.192 106.428 19.584C106.428 18.976 106.29 18.4427 106.012 17.984C105.735 17.5253 105.356 17.168 104.876 16.912C104.396 16.6453 103.847 16.512 103.228 16.512C102.62 16.512 102.071 16.6453 101.58 16.912C101.1 17.168 100.722 17.5253 100.444 17.984C100.178 18.4427 100.044 18.976 100.044 19.584C100.044 20.192 100.178 20.7307 100.444 21.2C100.722 21.6587 101.1 22.0213 101.58 22.288C102.071 22.544 102.62 22.672 103.228 22.672Z" fill="#333333"></path><defs><radialGradient id="paint0_radial_1023_7305" cx="0" cy="0" r="1" gradientUnits="userSpaceOnUse" gradientTransform="translate(18 18) rotate(90) scale(14)"><stop stop-color="#E69500"></stop><stop offset="1" stop-color="#FFCA66"></stop></radialGradient><linearGradient id="paint1_linear_1023_7305" x1="4.53994" y1="9.93949" x2="37.5323" y2="36.0074" gradientUnits="userSpaceOnUse"><stop stop-color="white"></stop><stop offset="0.734375" stop-color="white" stop-opacity="0"></stop></linearGradient><linearGradient id="paint2_linear_1023_7305" x1="14.699" y1="17.3128" x2="19.1735" y2="18.8043" gradientUnits="userSpaceOnUse"><stop stop-color="white"></stop><stop offset="1" stop-color="white" stop-opacity="0"></stop></linearGradient></defs></svg>