<svg xmlns="http://www.w3.org/2000/svg" width="116" height="36" viewBox="0 0 116 36" fill="none"><rect width="116" height="36" rx="18" fill="white"></rect><rect x="0.5" y="0.5" width="115" height="35" rx="17.5" stroke="white" stroke-opacity="0.4"></rect><circle cx="18" cy="18" r="13.9143" fill="url(#paint0_radial_1023_7333)" stroke="url(#paint1_linear_1023_7333)" stroke-width="0.171331"></circle><path d="M20.2169 17.7201C20.2169 18.2277 20.0663 18.724 19.7843 19.1461C19.5023 19.5681 19.1014 19.8971 18.6324 20.0914C18.1634 20.2857 17.6473 20.3365 17.1495 20.2374C16.6516 20.1384 16.1942 19.894 15.8353 19.535C15.4763 19.1761 15.2319 18.7187 15.1328 18.2208C15.0338 17.7229 15.0846 17.2069 15.2789 16.7379C15.4732 16.2689 15.8021 15.868 16.2242 15.586C16.6463 15.304 17.1426 15.1534 17.6502 15.1534C18.3309 15.1534 18.9838 15.4238 19.4651 15.9052C19.9464 16.3865 20.2169 17.0394 20.2169 17.7201ZM25.3502 13.6134V21.8268C25.3502 21.9629 25.2961 22.0935 25.1998 22.1897C25.1036 22.286 24.973 22.3401 24.8369 22.3401H10.4635C10.3274 22.3401 10.1968 22.286 10.1005 22.1897C10.0043 22.0935 9.9502 21.9629 9.9502 21.8268V13.6134C9.9502 13.4773 10.0043 13.3467 10.1005 13.2504C10.1968 13.1542 10.3274 13.1001 10.4635 13.1001H24.8369C24.973 13.1001 25.1036 13.1542 25.1998 13.2504C25.2961 13.3467 25.3502 13.4773 25.3502 13.6134ZM24.3235 16.5876C23.7406 16.4152 23.2101 16.0998 22.7803 15.67C22.3505 15.2402 22.0351 14.7097 21.8627 14.1268H13.4377C13.2653 14.7097 12.9499 15.2402 12.5201 15.67C12.0903 16.0998 11.5597 16.4152 10.9769 16.5876V18.8526C11.5597 19.025 12.0903 19.3404 12.5201 19.7702C12.9499 20.2 13.2653 20.7305 13.4377 21.3134H21.8627C22.0351 20.7305 22.3505 20.2 22.7803 19.7702C23.2101 19.3404 23.7406 19.025 24.3235 18.8526V16.5876Z" fill="white"></path><path d="M44.912 24.096C44.08 24.096 43.28 23.9627 42.512 23.696C41.7547 23.4187 41.168 23.0667 40.752 22.64L41.216 21.728C41.6107 22.112 42.1387 22.4373 42.8 22.704C43.472 22.96 44.176 23.088 44.912 23.088C45.616 23.088 46.1867 23.0027 46.624 22.832C47.072 22.6507 47.3973 22.4107 47.6 22.112C47.8133 21.8133 47.92 21.4827 47.92 21.12C47.92 20.6827 47.792 20.3307 47.536 20.064C47.2907 19.7973 46.9653 19.5893 46.56 19.44C46.1547 19.28 45.7067 19.1413 45.216 19.024C44.7253 18.9067 44.2347 18.784 43.744 18.656C43.2533 18.5173 42.8 18.336 42.384 18.112C41.9787 17.888 41.648 17.5947 41.392 17.232C41.1467 16.8587 41.024 16.3733 41.024 15.776C41.024 15.2213 41.168 14.7147 41.456 14.256C41.7547 13.7867 42.208 13.4133 42.816 13.136C43.424 12.848 44.2027 12.704 45.152 12.704C45.7813 12.704 46.4053 12.7947 47.024 12.976C47.6427 13.1467 48.176 13.3867 48.624 13.696L48.224 14.64C47.744 14.32 47.232 14.0853 46.688 13.936C46.1547 13.7867 45.6373 13.712 45.136 13.712C44.464 13.712 43.9093 13.8027 43.472 13.984C43.0347 14.1653 42.7093 14.4107 42.496 14.72C42.2933 15.0187 42.192 15.36 42.192 15.744C42.192 16.1813 42.3147 16.5333 42.56 16.8C42.816 17.0667 43.1467 17.2747 43.552 17.424C43.968 17.5733 44.4213 17.7067 44.912 17.824C45.4027 17.9413 45.888 18.0693 46.368 18.208C46.8587 18.3467 47.3067 18.528 47.712 18.752C48.128 18.9653 48.4587 19.2533 48.704 19.616C48.96 19.9787 49.088 20.4533 49.088 21.04C49.088 21.584 48.9387 22.0907 48.64 22.56C48.3413 23.0187 47.8827 23.392 47.264 23.68C46.656 23.9573 45.872 24.096 44.912 24.096ZM51.4278 24V15.6H52.5638V24H51.4278ZM52.0038 13.744C51.7691 13.744 51.5718 13.664 51.4118 13.504C51.2518 13.344 51.1718 13.152 51.1718 12.928C51.1718 12.704 51.2518 12.5173 51.4118 12.368C51.5718 12.208 51.7691 12.128 52.0038 12.128C52.2384 12.128 52.4358 12.2027 52.5958 12.352C52.7558 12.5013 52.8358 12.688 52.8358 12.912C52.8358 13.1467 52.7558 13.344 52.5958 13.504C52.4464 13.664 52.2491 13.744 52.0038 13.744ZM59.2926 24.08C58.418 24.08 57.65 23.8987 56.9886 23.536C56.3273 23.1627 55.81 22.656 55.4366 22.016C55.0633 21.3653 54.8766 20.624 54.8766 19.792C54.8766 18.96 55.0526 18.224 55.4046 17.584C55.7673 16.944 56.258 16.4427 56.8766 16.08C57.506 15.7067 58.21 15.52 58.9886 15.52C59.778 15.52 60.4766 15.7013 61.0846 16.064C61.7033 16.416 62.1886 16.9173 62.5406 17.568C62.8926 18.208 63.0686 18.9493 63.0686 19.792C63.0686 19.8453 63.0633 19.904 63.0526 19.968C63.0526 20.0213 63.0526 20.08 63.0526 20.144H55.7406V19.296H62.4446L61.9966 19.632C61.9966 19.024 61.8633 18.4853 61.5966 18.016C61.3406 17.536 60.9886 17.1627 60.5406 16.896C60.0926 16.6293 59.5753 16.496 58.9886 16.496C58.4126 16.496 57.8953 16.6293 57.4366 16.896C56.978 17.1627 56.6206 17.536 56.3646 18.016C56.1086 18.496 55.9806 19.0453 55.9806 19.664V19.84C55.9806 20.48 56.1193 21.0453 56.3966 21.536C56.6846 22.016 57.0793 22.3947 57.5806 22.672C58.0926 22.9387 58.674 23.072 59.3246 23.072C59.8366 23.072 60.3113 22.9813 60.7486 22.8C61.1966 22.6187 61.5806 22.3413 61.9006 21.968L62.5406 22.704C62.1673 23.152 61.698 23.4933 61.1326 23.728C60.578 23.9627 59.9646 24.08 59.2926 24.08ZM56.3326 14.288L58.3966 12.304H59.5486L61.6126 14.288H60.5566L58.5246 12.592H59.4206L57.3886 14.288H56.3326ZM68.8529 24.08C68.1382 24.08 67.5142 23.9467 66.9809 23.68C66.4475 23.4133 66.0315 23.0133 65.7329 22.48C65.4449 21.9467 65.3009 21.28 65.3009 20.48V15.6H66.4369V20.352C66.4369 21.248 66.6555 21.9253 67.0929 22.384C67.5409 22.832 68.1649 23.056 68.9649 23.056C69.5515 23.056 70.0582 22.9387 70.4849 22.704C70.9222 22.4587 71.2529 22.1067 71.4769 21.648C71.7115 21.1893 71.8289 20.64 71.8289 20V15.6H72.9649V24H71.8769V21.696L72.0529 22.112C71.7862 22.7307 71.3702 23.216 70.8049 23.568C70.2502 23.9093 69.5995 24.08 68.8529 24.08ZM84.6064 15.52C85.289 15.52 85.8864 15.6533 86.3984 15.92C86.921 16.176 87.3264 16.5707 87.6144 17.104C87.913 17.6373 88.0624 18.3093 88.0624 19.12V24H86.9264V19.232C86.9264 18.3467 86.7024 17.68 86.2544 17.232C85.817 16.7733 85.1984 16.544 84.3984 16.544C83.801 16.544 83.2784 16.6667 82.8304 16.912C82.393 17.1467 82.0517 17.4933 81.8064 17.952C81.5717 18.4 81.4544 18.944 81.4544 19.584V24H80.3184V12.128H81.4544V17.904L81.2304 17.472C81.497 16.864 81.9237 16.3893 82.5104 16.048C83.097 15.696 83.7957 15.52 84.6064 15.52ZM94.5549 24.08C93.7335 24.08 93.0029 23.8987 92.3629 23.536C91.7229 23.1627 91.2162 22.656 90.8429 22.016C90.4695 21.3653 90.2829 20.624 90.2829 19.792C90.2829 18.9493 90.4695 18.2133 90.8429 17.584C91.2162 16.944 91.7229 16.4427 92.3629 16.08C93.0135 15.7067 93.7495 15.52 94.5709 15.52C94.8589 15.52 95.0989 15.5253 95.2909 15.536C95.4935 15.5467 95.6909 15.5627 95.8829 15.584C96.0855 15.6053 96.3095 15.616 96.5549 15.616C97.0029 15.616 97.3282 15.504 97.5309 15.28C97.7442 15.056 97.8509 14.7947 97.8509 14.496C97.8509 14.2933 97.8189 14.112 97.7549 13.952C97.6909 13.7813 97.6162 13.6213 97.5309 13.472L98.2669 13.184C98.3949 13.3653 98.4962 13.5733 98.5709 13.808C98.6455 14.0427 98.6829 14.2827 98.6829 14.528C98.6829 14.8907 98.5975 15.216 98.4269 15.504C98.2669 15.7813 98.0215 16 97.6909 16.16C97.3709 16.32 96.9709 16.4 96.4909 16.4C96.3522 16.4 96.2082 16.3947 96.0589 16.384C95.9202 16.3627 95.7602 16.3413 95.5789 16.32L96.1389 15.792C96.9495 16.08 97.6002 16.5813 98.0909 17.296C98.5922 18 98.8429 18.832 98.8429 19.792C98.8429 20.624 98.6562 21.3653 98.2829 22.016C97.9202 22.656 97.4135 23.1627 96.7629 23.536C96.1229 23.8987 95.3869 24.08 94.5549 24.08ZM94.5549 23.072C95.1522 23.072 95.6855 22.9387 96.1549 22.672C96.6349 22.3947 97.0082 22.0107 97.2749 21.52C97.5522 21.0187 97.6909 20.4427 97.6909 19.792C97.6909 19.1307 97.5522 18.5547 97.2749 18.064C97.0082 17.5733 96.6402 17.1947 96.1709 16.928C95.7015 16.6507 95.1629 16.512 94.5549 16.512C93.9682 16.512 93.4402 16.6507 92.9709 16.928C92.5015 17.1947 92.1282 17.5733 91.8509 18.064C91.5735 18.5547 91.4349 19.1307 91.4349 19.792C91.4349 20.4427 91.5735 21.0187 91.8509 21.52C92.1282 22.0107 92.5015 22.3947 92.9709 22.672C93.4402 22.9387 93.9682 23.072 94.5549 23.072ZM94.4749 14.288L91.8829 12.304H93.4029L95.5949 14.288H94.4749ZM101.162 24V15.6H102.298V24H101.162ZM101.738 13.744C101.503 13.744 101.306 13.664 101.146 13.504C100.986 13.344 100.906 13.152 100.906 12.928C100.906 12.704 100.986 12.5173 101.146 12.368C101.306 12.208 101.503 12.128 101.738 12.128C101.973 12.128 102.17 12.2027 102.33 12.352C102.49 12.5013 102.57 12.688 102.57 12.912C102.57 13.1467 102.49 13.344 102.33 13.504C102.181 13.664 101.983 13.744 101.738 13.744Z" fill="#333333"></path><defs><radialGradient id="paint0_radial_1023_7333" cx="0" cy="0" r="1" gradientUnits="userSpaceOnUse" gradientTransform="translate(18 18) rotate(90) scale(14)"><stop stop-color="#E69500"></stop><stop offset="1" stop-color="#FFCA66"></stop></radialGradient><linearGradient id="paint1_linear_1023_7333" x1="4.53994" y1="9.93949" x2="37.5323" y2="36.0074" gradientUnits="userSpaceOnUse"><stop stop-color="white"></stop><stop offset="0.734375" stop-color="white" stop-opacity="0"></stop></linearGradient></defs></svg>