<svg xmlns="http://www.w3.org/2000/svg" width="121" height="36" viewBox="0 0 121 36" fill="none"><rect width="121" height="36" rx="18" fill="white"></rect><rect x="0.5" y="0.5" width="120" height="35" rx="17.5" stroke="white" stroke-opacity="0.4"></rect><path d="M18.7045 29.1563C20.6062 28.4801 28.2485 25.0417 28.6246 13.3586C28.6424 12.8035 28.3456 12.2823 27.8675 11.9997C21.953 8.50432 14.6049 8.50432 8.69041 11.9997C8.21228 12.2823 7.91546 12.8035 7.93333 13.3586C8.30942 25.0417 15.9517 28.4801 17.8534 29.1563C18.1309 29.255 18.427 29.255 18.7045 29.1563Z" fill="url(#paint0_linear_1023_7339)"></path><circle cx="18" cy="18" r="13.9143" fill="url(#paint1_radial_1023_7339)" stroke="url(#paint2_linear_1023_7339)" stroke-width="0.171331"></circle><path d="M23.8333 11H12.1667C11.8572 11 11.5605 11.1229 11.3417 11.3417C11.1229 11.5605 11 11.8572 11 12.1667V16.452C11 22.986 16.5285 25.1538 17.6354 25.5221C17.8718 25.6025 18.1282 25.6025 18.3646 25.5221C19.4729 25.1538 25 22.986 25 16.452V12.1667C25 11.8572 24.8771 11.5605 24.6583 11.3417C24.4395 11.1229 24.1428 11 23.8333 11ZM21.3294 16.0794L17.246 20.1627C17.1919 20.2169 17.1275 20.26 17.0567 20.2893C16.9859 20.3187 16.91 20.3338 16.8333 20.3338C16.7567 20.3338 16.6808 20.3187 16.61 20.2893C16.5391 20.26 16.4748 20.2169 16.4206 20.1627L14.6706 18.4127C14.5612 18.3032 14.4997 18.1548 14.4997 18C14.4997 17.8452 14.5612 17.6967 14.6706 17.5873C14.7801 17.4778 14.9285 17.4163 15.0833 17.4163C15.2381 17.4163 15.3866 17.4778 15.496 17.5873L16.8333 18.9246L20.504 15.254C20.5582 15.1998 20.6225 15.1568 20.6933 15.1274C20.7641 15.0981 20.84 15.083 20.9167 15.083C20.9933 15.083 21.0692 15.0981 21.14 15.1274C21.2108 15.1568 21.2752 15.1998 21.3294 15.254C21.3836 15.3082 21.4266 15.3725 21.4559 15.4433C21.4852 15.5141 21.5003 15.59 21.5003 15.6667C21.5003 15.7433 21.4852 15.8192 21.4559 15.89C21.4266 15.9608 21.3836 16.0252 21.3294 16.0794Z" fill="white"></path><path d="M41.824 24V12.8H46.656C47.904 12.8 48.8693 13.0507 49.552 13.552C50.2453 14.0533 50.592 14.7627 50.592 15.68C50.592 16.288 50.448 16.8 50.16 17.216C49.8827 17.632 49.4987 17.9467 49.008 18.16C48.528 18.3733 48 18.48 47.424 18.48L47.696 18.096C48.4107 18.096 49.024 18.208 49.536 18.432C50.0587 18.6453 50.464 18.9707 50.752 19.408C51.04 19.8347 51.184 20.368 51.184 21.008C51.184 21.9573 50.832 22.6933 50.128 23.216C49.4347 23.7387 48.384 24 46.976 24H41.824ZM43.008 23.024H46.96C47.9413 23.024 48.6933 22.8587 49.216 22.528C49.7387 22.1867 50 21.648 50 20.912C50 20.1867 49.7387 19.6587 49.216 19.328C48.6933 18.9867 47.9413 18.816 46.96 18.816H42.88V17.84H46.576C47.472 17.84 48.1653 17.6693 48.656 17.328C49.1573 16.9867 49.408 16.48 49.408 15.808C49.408 15.1253 49.1573 14.6187 48.656 14.288C48.1653 13.9467 47.472 13.776 46.576 13.776H43.008V23.024ZM58.9105 24V22.144L58.8625 21.84V18.736C58.8625 18.0213 58.6598 17.472 58.2545 17.088C57.8598 16.704 57.2678 16.512 56.4785 16.512C55.9345 16.512 55.4172 16.6027 54.9265 16.784C54.4358 16.9653 54.0198 17.2053 53.6785 17.504L53.1665 16.656C53.5932 16.2933 54.1052 16.016 54.7025 15.824C55.2998 15.6213 55.9292 15.52 56.5905 15.52C57.6785 15.52 58.5158 15.792 59.1025 16.336C59.6998 16.8693 59.9985 17.6853 59.9985 18.784V24H58.9105ZM56.0145 24.08C55.3852 24.08 54.8358 23.9787 54.3665 23.776C53.9078 23.5627 53.5558 23.2747 53.3105 22.912C53.0652 22.5387 52.9425 22.112 52.9425 21.632C52.9425 21.1947 53.0438 20.8 53.2465 20.448C53.4598 20.0853 53.8012 19.7973 54.2705 19.584C54.7505 19.36 55.3905 19.248 56.1905 19.248H59.0865V20.096H56.2225C55.4118 20.096 54.8465 20.24 54.5265 20.528C54.2172 20.816 54.0625 21.1733 54.0625 21.6C54.0625 22.08 54.2492 22.464 54.6225 22.752C54.9958 23.04 55.5185 23.184 56.1905 23.184C56.8305 23.184 57.3798 23.04 57.8385 22.752C58.3078 22.4533 58.6492 22.0267 58.8625 21.472L59.1185 22.256C58.9052 22.8107 58.5318 23.2533 57.9985 23.584C57.4758 23.9147 56.8145 24.08 56.0145 24.08ZM56.8305 14.4L56.4305 13.904C56.7505 13.7547 56.9852 13.5893 57.1345 13.408C57.2945 13.2267 57.3745 13.0133 57.3745 12.768C57.3745 12.544 57.2945 12.3573 57.1345 12.208C56.9745 12.0587 56.7612 11.984 56.4945 11.984C56.1638 11.984 55.8438 12.0853 55.5345 12.288L55.2625 11.728C55.4438 11.5893 55.6518 11.488 55.8865 11.424C56.1318 11.3493 56.3665 11.312 56.5905 11.312C57.0385 11.312 57.4012 11.44 57.6785 11.696C57.9665 11.9413 58.1105 12.272 58.1105 12.688C58.1105 13.0613 58.0038 13.392 57.7905 13.68C57.5878 13.9573 57.2678 14.1973 56.8305 14.4ZM66.508 24.08C65.6973 24.08 64.9667 23.8987 64.316 23.536C63.676 23.1627 63.1693 22.656 62.796 22.016C62.4227 21.3653 62.236 20.624 62.236 19.792C62.236 18.9493 62.4227 18.208 62.796 17.568C63.1693 16.928 63.676 16.4267 64.316 16.064C64.956 15.7013 65.6867 15.52 66.508 15.52C67.34 15.52 68.076 15.7013 68.716 16.064C69.3667 16.4267 69.8733 16.928 70.236 17.568C70.6093 18.208 70.796 18.9493 70.796 19.792C70.796 20.624 70.6093 21.3653 70.236 22.016C69.8733 22.656 69.3667 23.1627 68.716 23.536C68.0653 23.8987 67.3293 24.08 66.508 24.08ZM66.508 23.072C67.116 23.072 67.6547 22.9387 68.124 22.672C68.5933 22.3947 68.9613 22.0107 69.228 21.52C69.5053 21.0187 69.644 20.4427 69.644 19.792C69.644 19.1307 69.5053 18.5547 69.228 18.064C68.9613 17.5733 68.5933 17.1947 68.124 16.928C67.6547 16.6507 67.1213 16.512 66.524 16.512C65.9267 16.512 65.3933 16.6507 64.924 16.928C64.4547 17.1947 64.0813 17.5733 63.804 18.064C63.5267 18.5547 63.388 19.1307 63.388 19.792C63.388 20.4427 63.5267 21.0187 63.804 21.52C64.0813 22.0107 64.4547 22.3947 64.924 22.672C65.3933 22.9387 65.9213 23.072 66.508 23.072ZM87.7988 15.52C88.4814 15.52 89.0734 15.6533 89.5748 15.92C90.0868 16.176 90.4814 16.5707 90.7588 17.104C91.0468 17.6373 91.1908 18.3093 91.1908 19.12V24H90.0548V19.232C90.0548 18.3467 89.8414 17.68 89.4148 17.232C88.9988 16.7733 88.4068 16.544 87.6388 16.544C87.0628 16.544 86.5614 16.6667 86.1348 16.912C85.7188 17.1467 85.3934 17.4933 85.1588 17.952C84.9348 18.4 84.8228 18.944 84.8228 19.584V24H83.6868V19.232C83.6868 18.3467 83.4734 17.68 83.0468 17.232C82.6201 16.7733 82.0228 16.544 81.2548 16.544C80.6894 16.544 80.1934 16.6667 79.7668 16.912C79.3401 17.1467 79.0094 17.4933 78.7748 17.952C78.5508 18.4 78.4388 18.944 78.4388 19.584V24H77.3028V15.6H78.3908V17.872L78.2148 17.472C78.4708 16.864 78.8814 16.3893 79.4468 16.048C80.0228 15.696 80.7001 15.52 81.4788 15.52C82.3001 15.52 82.9988 15.728 83.5748 16.144C84.1508 16.5493 84.5241 17.1627 84.6948 17.984L84.2468 17.808C84.4921 17.1253 84.9241 16.576 85.5428 16.16C86.1721 15.7333 86.9241 15.52 87.7988 15.52ZM99.5355 24V22.144L99.4875 21.84V18.736C99.4875 18.0213 99.2848 17.472 98.8795 17.088C98.4848 16.704 97.8928 16.512 97.1035 16.512C96.5595 16.512 96.0422 16.6027 95.5515 16.784C95.0608 16.9653 94.6448 17.2053 94.3035 17.504L93.7915 16.656C94.2182 16.2933 94.7302 16.016 95.3275 15.824C95.9248 15.6213 96.5542 15.52 97.2155 15.52C98.3035 15.52 99.1408 15.792 99.7275 16.336C100.325 16.8693 100.624 17.6853 100.624 18.784V24H99.5355ZM96.6395 24.08C96.0102 24.08 95.4608 23.9787 94.9915 23.776C94.5328 23.5627 94.1808 23.2747 93.9355 22.912C93.6902 22.5387 93.5675 22.112 93.5675 21.632C93.5675 21.1947 93.6688 20.8 93.8715 20.448C94.0848 20.0853 94.4262 19.7973 94.8955 19.584C95.3755 19.36 96.0155 19.248 96.8155 19.248H99.7115V20.096H96.8475C96.0368 20.096 95.4715 20.24 95.1515 20.528C94.8422 20.816 94.6875 21.1733 94.6875 21.6C94.6875 22.08 94.8742 22.464 95.2475 22.752C95.6208 23.04 96.1435 23.184 96.8155 23.184C97.4555 23.184 98.0048 23.04 98.4635 22.752C98.9328 22.4533 99.2742 22.0267 99.4875 21.472L99.7435 22.256C99.5302 22.8107 99.1568 23.2533 98.6235 23.584C98.1008 23.9147 97.4395 24.08 96.6395 24.08ZM97.2795 27.04C97.0982 27.04 96.9382 26.976 96.7995 26.848C96.6608 26.72 96.5915 26.5547 96.5915 26.352C96.5915 26.1493 96.6608 25.984 96.7995 25.856C96.9382 25.728 97.0982 25.664 97.2795 25.664C97.4715 25.664 97.6315 25.728 97.7595 25.856C97.8982 25.984 97.9675 26.1493 97.9675 26.352C97.9675 26.5547 97.8982 26.72 97.7595 26.848C97.6315 26.976 97.4715 27.04 97.2795 27.04ZM94.6075 14.288L96.6715 12.304H97.8235L99.8875 14.288H98.8315L96.7995 12.592H97.6955L95.6635 14.288H94.6075ZM106.365 24.08C105.576 24.08 104.968 23.8667 104.541 23.44C104.114 23.0133 103.901 22.4107 103.901 21.632V13.744H105.037V21.568C105.037 22.0587 105.16 22.4373 105.405 22.704C105.661 22.9707 106.024 23.104 106.493 23.104C106.994 23.104 107.41 22.96 107.741 22.672L108.141 23.488C107.917 23.6907 107.645 23.84 107.325 23.936C107.016 24.032 106.696 24.08 106.365 24.08ZM102.397 16.544V15.6H107.597V16.544H102.397Z" fill="#333333"></path><defs><linearGradient id="paint0_linear_1023_7339" x1="13.8959" y1="11.3555" x2="30.1124" y2="16.3882" gradientUnits="userSpaceOnUse"><stop stop-color="#FFB833"></stop><stop offset="1" stop-color="#F59F00"></stop></linearGradient><radialGradient id="paint1_radial_1023_7339" cx="0" cy="0" r="1" gradientUnits="userSpaceOnUse" gradientTransform="translate(18 18) rotate(90) scale(14)"><stop stop-color="#E69500"></stop><stop offset="1" stop-color="#FFCA66"></stop></radialGradient><linearGradient id="paint2_linear_1023_7339" x1="4.53994" y1="9.93949" x2="37.5323" y2="36.0074" gradientUnits="userSpaceOnUse"><stop stop-color="white"></stop><stop offset="0.734375" stop-color="white" stop-opacity="0"></stop></linearGradient></defs></svg>